<?xml version="1.0" encoding="iso-8859-1"?>
<!-- Generator: Adobe Illustrator 19.0.0, SVG Export Plug-In . SVG Version: 6.00 Build 0)  -->
<svg version="1.1" id="Layer_1" xmlns="http://www.w3.org/2000/svg" xmlns:xlink="http://www.w3.org/1999/xlink" x="0px" y="0px"
	 viewBox="0 0 512 512" style="enable-background:new 0 0 512 512;" xml:space="preserve">
<path style="fill:#E95353;" d="M255.58,8.249c-76.018,0-147.561,30.283-191.375,81.006c-19.387,22.442-16.908,56.349,5.533,75.735
	c22.444,19.385,56.351,16.905,75.734-5.535c23.345-27.026,65.537-43.817,110.107-43.817c44.572,0,86.763,16.791,110.109,43.817
	c19.385,22.441,53.292,24.919,75.734,5.535c22.442-19.386,24.919-53.293,5.533-75.735C403.145,38.532,331.601,8.249,255.58,8.249z"
	/>
<g style="opacity:0.15;">
	<path style="fill:#202020;" d="M95.456,166.457c-22.442-19.386-24.921-53.293-5.533-75.735
		C133.737,39.999,205.28,9.716,281.298,9.716c1.087,0,2.172,0.016,3.257,0.029c-9.551-0.982-19.224-1.496-28.974-1.496
		c-76.018,0-147.561,30.283-191.375,81.006c-19.387,22.442-16.908,56.349,5.533,75.735c12.572,10.859,28.741,14.853,43.939,12.324
		c-4.654-1.684-9.133-4.041-13.297-7.074C98.688,169.088,97.043,167.828,95.456,166.457z"/>
</g>
<g>
	<path style="fill:#E95353;" d="M441.425,167.111l13.572,39.071c0,0,88.224-25.759,0-55.732"/>
	<path style="fill:#E95353;" d="M70.575,167.111l-13.575,39.071c0,0-88.224-25.759,0-55.732"/>
</g>
<g style="opacity:0.15;">
	<path style="fill:#202020;" d="M70.575,167.111l-13.575,39.071c0,0-88.224-25.759,0-55.732"/>
</g>
<path style="fill:#DCE0E2;" d="M237.942,332.171v14.521v32.774v108.665c0,8.626,6.994,15.62,15.619,15.62h2.305
	c8.627,0,15.619-6.994,15.619-15.62V379.465v-32.774v-14.521H237.942z"/>
<rect x="237.945" y="332.172" style="fill:#C0C9CC;" width="33.544" height="37.946"/>
<g>
	<path style="fill:#202020;" d="M108.485,87.081c-3.085,2.749-6.098,5.625-8.954,8.549c-3.184,3.259-3.124,8.481,0.135,11.664
		c1.605,1.568,3.686,2.349,5.763,2.349c2.144,0,4.285-0.83,5.901-2.485c2.591-2.652,5.327-5.263,8.129-7.758
		c3.402-3.031,3.702-8.245,0.672-11.648C117.101,84.352,111.888,84.052,108.485,87.081z"/>
	<path style="fill:#202020;" d="M307.08,39.655c-16.801-3.686-34.127-5.554-51.498-5.554c-46.64,0-92.112,13.532-128.038,38.103
		c-3.76,2.571-4.724,7.705-2.151,11.466c1.598,2.336,4.184,3.593,6.816,3.593c1.604,0,3.226-0.467,4.65-1.442
		C170.068,63.108,212.231,50.6,255.581,50.6c16.185,0,32.322,1.74,47.962,5.172c4.457,0.972,8.848-1.841,9.826-6.29
		C314.344,45.03,311.53,40.63,307.08,39.655z"/>
	<path style="fill:#202020;" d="M464.649,145.131c7.196-20.312,3.617-43.827-11.449-61.268C407.841,31.351,333.965,0,255.581,0
		C177.199,0,103.323,31.351,57.963,83.862c-10.816,12.522-16.109,28.505-14.904,45.008c0.419,5.734,1.622,11.285,3.517,16.551
		c-17.874,6.764-37.38,17.115-37.032,33.206c0.464,21.354,37.687,33.296,45.144,35.474c0.77,0.225,1.548,0.333,2.314,0.333
		c3.427,0,6.611-2.151,7.79-5.544l10.464-30.12c9.017,4.902,19.169,7.531,29.558,7.531c18.03,0,35.124-7.819,46.901-21.453
		c11.094-12.844,26.841-23.208,45.187-30.3v56.417c0,14.485,11.785,26.27,26.27,26.27h23.291v106.688h-8.522
		c-4.557,0-8.249,3.692-8.249,8.249v37.946v118.014c0,13.162,10.707,23.869,23.868,23.869h2.305
		c13.161,0,23.868-10.707,23.868-23.869V370.117v-37.946c0-4.557-3.692-8.249-8.249-8.249h-8.524V217.234h23.291
		c14.485,0,26.27-11.785,26.27-26.27v-57.077c19.089,7.102,35.481,17.712,46.925,30.96c11.775,13.633,28.869,21.451,46.901,21.453
		c0.002,0,0.003,0,0.006,0c10.657,0,21.063-2.772,30.252-7.922l10.599,30.513c1.179,3.393,4.363,5.544,7.79,5.544
		c0.766,0,1.543-0.108,2.314-0.333c7.457-2.177,44.68-14.12,45.144-35.474C502.806,162.304,482.729,151.888,464.649,145.131z
		 M255.866,495.502h-2.305c-4.064,0-7.37-3.307-7.37-7.371V378.366h17.046v109.765C263.237,492.195,259.931,495.502,255.866,495.502
		z M263.237,361.868h-17.046V340.42h17.046V361.868z M51.886,195.766c-13.103-4.962-25.74-12.6-25.847-17.497
		c-0.008-0.328,0.189-7.736,28.236-18.099c2.096,2.949,4.472,5.722,7.095,8.299L51.886,195.766z M223.174,200.736
		c-5.388,0-9.772-4.383-9.772-9.772v-60.978c0-0.251-0.015-0.497-0.037-0.741c10.558-2.755,21.697-4.492,33.1-5.102v76.595h-23.29
		V200.736z M296.025,129.986v60.978c0,5.388-4.383,9.772-9.772,9.772h-23.291v-76.683c11.406,0.494,22.558,2.128,33.153,4.771
		C296.062,129.204,296.025,129.59,296.025,129.986z M406.35,169.803c-13.233-0.001-25.778-5.738-34.416-15.739
		c-24.869-28.79-69.452-46.673-116.352-46.673c-46.901,0-91.483,17.884-116.35,46.673c-8.639,10.002-21.184,15.739-34.415,15.739
		c-10.889,0-21.431-3.925-29.684-11.055c-9.187-7.936-14.734-18.974-15.617-31.08c-0.885-12.107,2.998-23.834,10.934-33.021
		c42.269-48.934,111.477-78.148,185.133-78.148c73.656,0,142.866,29.214,185.135,78.149c16.382,18.964,14.28,47.72-4.683,64.101
		c-8.253,7.129-18.794,11.055-29.679,11.055C406.353,169.803,406.352,169.803,406.35,169.803z M460.112,195.772l-9.701-27.928
		c2.457-2.488,4.674-5.135,6.628-7.922c28.711,10.491,28.924,18.015,28.918,18.346C485.854,183.235,473.374,190.781,460.112,195.772
		z"/>
</g>
<g>
</g>
<g>
</g>
<g>
</g>
<g>
</g>
<g>
</g>
<g>
</g>
<g>
</g>
<g>
</g>
<g>
</g>
<g>
</g>
<g>
</g>
<g>
</g>
<g>
</g>
<g>
</g>
<g>
</g>
</svg>
